<svg
    width="120"
    height="120"
    viewBox="0 0 120 120"
    xmlns="http://www.w3.org/2000/svg"
>
  <defs>
    <linearGradient id="primaryGrad" x1="0%" y1="0%" x2="100%" y2="100%">
      <stop offset="0%" style="stop-color:#FF8E7A;stop-opacity:1" />
      <stop offset="100%" style="stop-color:#E65D4F;stop-opacity:1" />
    </linearGradient>
  </defs>

  <g transform="translate(0, -2)">

    <path
            d="M 22 56 L 58 77 L 58 107 L 22 86 Z"
            fill="url(#primaryGrad)"
            opacity="0.95"
        />

    <path d="M 62 77 L 98 56 L 98 64 L 62 85 Z" fill="#E65D4F" opacity="0.9" />
    <path d="M 62 88 L 98 67 L 98 75 L 62 96 Z" fill="#E65D4F" opacity="0.65" />
    <path d="M 62 99 L 98 78 L 98 86 L 62 107 Z" fill="#E65D4F" opacity="0.4" />


    <path d="M 60 25 L 98 47 L 60 69 L 22 47 Z" fill="#FF8E7A" opacity="0.15" />

    <g stroke="#E65D4F" stroke-width="1.5" stroke-linecap="round" opacity="0.4">
      <line x1="47.33" y1="32.33" x2="85.33" y2="54.33" />
      <line x1="34.66" y1="39.66" x2="72.66" y2="61.66" />
      <line x1="72.66" y1="32.33" x2="34.66" y2="54.33" />
      <line x1="85.33" y1="39.66" x2="47.33" y2="61.66" />
    </g>


    <g>
      <path
                d="M 47.33 31 L 60 38.33 L 60 54.33 L 47.33 47 Z"
                fill="#E65D4F"
                opacity="0.9"
            />
      <path
                d="M 60 38.33 L 72.66 31 L 72.66 47 L 60 54.33 Z"
                fill="#E65D4F"
                opacity="0.6"
            />
      <path
                d="M 60 23.66 L 72.66 31 L 60 38.33 L 47.33 31 Z"
                fill="url(#primaryGrad)"
            />

      <path
                d="M 58 31 L 62 31 M 60 29 L 60 33"
                stroke="#FFFFFF"
                stroke-width="1.2"
                stroke-linecap="round"
            />
    </g>

  </g>
</svg>
