<svg xmlns="http://www.w3.org/2000/svg" width="200" height="200" fill="none" viewBox="0 0 200 200">
<!-- SVG created with Arrow, by QuiverAI (https://quiver.ai) -->
  <path d="m182.4 5.67h-164.8c-7.59 0-12.25 7.02-12.25 12.75v163.2c0 7.53 5.56 13.42 12.25 13.42h164.8c7.4 0 12.25-7.17 12.25-13.42v-163.2c0-7.04-5.61-12.75-12.25-12.75zm1.25 175c0 2.1-1.21 2.95-2.8 2.95h-162.4c-2.1 0-2.85-1.27-2.85-2.95v-161.8c0-2.1 0.95-2.8 2.85-2.8h162.4c1.74 0 2.8 1.1 2.8 2.8v161.8z" fill="url(#paint0_linear_2167_1705)"/>
  <path d="m113.4 104.9h-42v-37.81c0-8.37 2.87-11.22 12.57-11.22 5.3 0 8.98 0.38 13.56 0.82 0.98 0.1 1.41-0.72 0.97-1.67l-4.02-11.51c-0.38-1.02-1.03-1.28-2.08-1.41-2.6-0.32-5.24-0.32-8.56-0.32-17.88 0-27.58 4.97-27.58 24.6v38.52h-13.46c-1.18 0-1.76 0.82-1.76 1.9v9.25c0 1.14 0.58 1.72 1.76 1.72h70.6c1.17 0 1.68-0.71 1.68-1.72v-9.44c0-1.08-0.64-1.71-1.68-1.71z" fill="url(#paint1_linear_2167_1705)"/>
  <path d="m111.5 136.3v9.36c0 1.14-0.77 1.72-1.81 1.72h-59.73c-1.17 0-1.69-0.71-1.69-1.72v-9.36c0-1.08 0.64-1.71 1.69-1.71h59.85c1.05 0 1.69 0.7 1.69 1.71z" fill="url(#paint2_linear_2167_1705)"/>
  <path d="m164.7 87.72c0.03 0.79-0.36 1.66-1.27 2.2-11.3 7.25-24.3 20.85-31.5 35.04-0.65 1.25-1.79 1.55-2.93 1.05l-10.03-5.03c-1.23-0.63-1.55-1.64-0.64-3.06 3.94-6.25 7.6-11.03 12-16.61v-58.01c0-1.55 1.05-2.12 2.22-2.12h10.38c1.3 0 2.07 0.64 2.07 2.12v43.38c3.2-3.2 6.27-5.73 9.34-7.85 1.39-0.88 2.56-0.5 3.33 0.8 2.07 3.25 4.01 5.58 6.27 7.96 0.47 0.48 0.74-0.13 0.76 0.13z" fill="url(#paint3_linear_2167_1705)"/>
  <path d="m162.9 125.2c0.11 0.89-0.36 1.75-1.48 2.45-10.17 6.46-21.33 17.11-27.6 27.06-0.77 1.21-1.91 1.4-3.17 0.64l-9.04-5.1c-1.45-0.82-1.71-1.7-0.66-3.24 8.16-11.84 17.99-22.12 31.77-31.41 1.23-0.89 2.62-0.7 3.5 0.85 2.19 3.51 4.01 5.77 6.14 7.89 0.42 0.41 0.48 0.48 0.54 0.86z" fill="url(#paint4_linear_2167_1705)"/>
  <path d="m88.01 70.34c-6.3 0-8.69 4.54-8.82 6.97-0.13 2.12 0.72 2.32 1.43 2.32h0.64c1.04 0 1.69-0.67 2.2-2.12 0.77-2 2.16-2.7 3.85-2.7 2 0 3.58 1.14 4.22 3.01 0.51 1.42 1.22 1.81 1.99 1.81h0.32c1.11 0 1.69-1.17 1.5-2.56-0.58-3.64-3.11-6.73-7.33-6.73z" fill="url(#paint5_linear_2167_1705)"/>
  <path d="m114.2 70.34c-6.3 0-8.4 4.54-8.59 6.97-0.13 1.74 0.71 2.32 1.42 2.32h0.58c0.91 0 1.62-0.67 2.2-2.12 0.83-2.06 2.22-2.7 3.91-2.7 2 0 3.58 1.14 4.35 3.01 0.64 1.55 1.41 1.81 2.18 1.81h0.19c1.11 0 1.69-1.17 1.49-2.56-0.57-3.64-3.31-6.73-7.73-6.73z" fill="url(#paint6_linear_2167_1705)"/>
  <path d="m88.78 86.74c2.2 2 6.36 3.74 11.43 3.74s8.52-1.87 12.01-3.74c-1.89 6.39-7.09 9.77-12.01 9.77-5.72 0-10.42-4.09-11.43-9.77z" fill="url(#paint7_linear_2167_1705)"/>
  <path d="m53.99 25.25c-1.68-0.44-3.75 0.44-3.98 2.12l2.53 10.47c0.25 1.35 1.02 2.11 2.41 2.11 1.69 0 2.01-1.8 1.75-3.19l-2.07-9.45c-0.19-0.95-0.19-1.81-0.64-2.06z" fill="url(#paint8_linear_2167_1705)"/>
  <path d="m36.66 33.71c-1.45-0.7-3.2 0.51-3.39 2.05-0.13 0.95 0.06 1.65 0.83 2.53l7.6 7.53c1.04 1.01 2.86 1.39 4.03 0 0.98-1.2 0.6-2.81-0.57-4.01l-7.95-7.72c-0.19-0.19-0.26-0.25-0.55-0.38z" fill="url(#paint9_linear_2167_1705)"/>
  <path d="m26.22 51.76c-0.39 1.68 0.38 3 2.13 3.19l8.6 1.93c1.39 0.38 2.3 0.26 2.81-1.13 0.71-1.8-0.74-3.19-2.13-3.51l-10.32-2.53c-0.58 0-0.9 0.82-1.09 2.05z" fill="url(#paint10_linear_2167_1705)"/>
  <path d="m162.4 143.6c-1.75 0-2.26 1.45-2.2 2.4 0.07 1.2 0.9 1.84 2.2 2.22l9.3 2.12c1.55 0.38 2.69-0.09 3.08-1.41 0.51-1.67-0.53-2.87-1.98-3.19l-9.56-2.01c-0.39-0.13-0.45-0.13-0.84-0.13z" fill="url(#paint11_linear_2167_1705)"/>
  <path d="m156.1 154.6c-1.72 0-2.95 2-2.18 3.48l8.45 8.12c1.39 1.07 2.91 0.76 3.68-0.44 0.77-1.26 0.32-2.87-0.82-3.98l-7.47-6.99c-0.52-0.25-1.03-0.19-1.66-0.19z" fill="url(#paint12_linear_2167_1705)"/>
  <path d="m145.5 160.7c-1.52-0.32-2.84 0.94-2.65 2.61l2.81 10.01c0.51 1.39 1.68 1.78 2.79 1.52 1.62-0.38 1.87-1.84 1.36-3.7l-2.32-8.74c-0.32-0.95-0.9-1.52-1.99-1.7z" fill="url(#paint13_linear_2167_1705)"/>
  <path d="m38.41 143.7-10.77 2.33c-1.23 0.39-1.87 1.78-1.55 2.88 0.38 1.2 1.55 1.71 2.63 1.39l10.14-2.49c1.39-0.32 2.03-1.14 1.77-2.82-0.25-1.1-1.19-1.55-2.22-1.29z" fill="url(#paint14_linear_2167_1705)"/>
  <path d="m45.54 154.6c-0.83 0-1.47 0.51-2.18 1.39l-7.4 7.41c-0.98 1.2-0.73 2.59 0.51 3.29 1.29 0.82 2.68 0.31 3.66-0.89l6.9-7.21c0.91-1.11 0.72-2.6-0.26-3.48-0.38-0.32-0.64-0.51-1.23-0.51z" fill="url(#paint15_linear_2167_1705)"/>
  <path d="m55.95 160.7c-1.17 0.12-2.08 0.94-2.4 2.39l-2.53 9.52c-0.39 1.55 0.91 2.5 2.02 2.5 1.33 0 2.17-0.7 2.49-2.18l2.53-9.23c0.39-1.68-0.69-3-2.11-3z" fill="url(#paint16_linear_2167_1705)"/>
  <defs>
    <linearGradient id="paint0_linear_2167_1705" x1="100" x2="100" y1="5.667" y2="195" gradientUnits="userSpaceOnUse">
      <stop stop-color="#A52222" offset="0"/>
      <stop stop-color="#A52222" offset="1"/>
    </linearGradient>
    <linearGradient id="paint1_linear_2167_1705" x1="78.07" x2="78.07" y1="41.82" y2="117.8" gradientUnits="userSpaceOnUse">
      <stop stop-color="#A52222" offset="0"/>
      <stop stop-color="#A52222" offset="1"/>
    </linearGradient>
    <linearGradient id="paint2_linear_2167_1705" x1="79.87" x2="79.87" y1="134.5" y2="147.3" gradientUnits="userSpaceOnUse">
      <stop stop-color="#A52222" offset="0"/>
      <stop stop-color="#A52222" offset="1"/>
    </linearGradient>
    <linearGradient id="paint3_linear_2167_1705" x1="141" x2="141" y1="41.18" y2="126.3" gradientUnits="userSpaceOnUse">
      <stop stop-color="#A52222" offset="0"/>
      <stop stop-color="#A52222" offset="1"/>
    </linearGradient>
    <linearGradient id="paint4_linear_2167_1705" x1="141.6" x2="141.6" y1="115" y2="155.9" gradientUnits="userSpaceOnUse">
      <stop stop-color="#A52222" offset="0"/>
      <stop stop-color="#A52222" offset="1"/>
    </linearGradient>
    <linearGradient id="paint5_linear_2167_1705" x1="87.28" x2="87.28" y1="70.34" y2="79.63" gradientUnits="userSpaceOnUse">
      <stop stop-color="#A52222" offset="0"/>
      <stop stop-color="#891E1E" offset="1"/>
    </linearGradient>
    <linearGradient id="paint6_linear_2167_1705" x1="113.8" x2="113.8" y1="70.34" y2="79.63" gradientUnits="userSpaceOnUse">
      <stop stop-color="#A52222" offset="0"/>
      <stop stop-color="#A52222" offset="1"/>
    </linearGradient>
    <linearGradient id="paint7_linear_2167_1705" x1="100.5" x2="100.5" y1="86.74" y2="96.51" gradientUnits="userSpaceOnUse">
      <stop stop-color="#A52222" offset="0"/>
      <stop stop-color="#891E1E" offset="1"/>
    </linearGradient>
    <linearGradient id="paint8_linear_2167_1705" x1="53.38" x2="53.38" y1="25.06" y2="39.95" gradientUnits="userSpaceOnUse">
      <stop stop-color="#A52222" offset="0"/>
      <stop stop-color="#A52222" offset="1"/>
    </linearGradient>
    <linearGradient id="paint9_linear_2167_1705" x1="39.8" x2="39.8" y1="33.44" y2="46.7" gradientUnits="userSpaceOnUse">
      <stop stop-color="#A52222" offset="0"/>
      <stop stop-color="#A52222" offset="1"/>
    </linearGradient>
    <linearGradient id="paint10_linear_2167_1705" x1="33.01" x2="33.01" y1="49.71" y2="57.14" gradientUnits="userSpaceOnUse">
      <stop stop-color="#A52222" offset="0"/>
      <stop stop-color="#A52222" offset="1"/>
    </linearGradient>
    <linearGradient id="paint11_linear_2167_1705" x1="167.5" x2="167.5" y1="143.6" y2="150.6" gradientUnits="userSpaceOnUse">
      <stop stop-color="#A52222" offset="0"/>
      <stop stop-color="#A52222" offset="1"/>
    </linearGradient>
    <linearGradient id="paint12_linear_2167_1705" x1="159.9" x2="159.9" y1="154.6" y2="167" gradientUnits="userSpaceOnUse">
      <stop stop-color="#A52222" offset="0"/>
      <stop stop-color="#A52222" offset="1"/>
    </linearGradient>
    <linearGradient id="paint13_linear_2167_1705" x1="146.4" x2="146.4" y1="160.6" y2="175" gradientUnits="userSpaceOnUse">
      <stop stop-color="#A52222" offset="0"/>
      <stop stop-color="#A52222" offset="1"/>
    </linearGradient>
    <linearGradient id="paint14_linear_2167_1705" x1="33.38" x2="33.38" y1="143.7" y2="150.5" gradientUnits="userSpaceOnUse">
      <stop stop-color="#A52222" offset="0"/>
      <stop stop-color="#A52222" offset="1"/>
    </linearGradient>
    <linearGradient id="paint15_linear_2167_1705" x1="41.47" x2="41.47" y1="154.6" y2="167.2" gradientUnits="userSpaceOnUse">
      <stop stop-color="#A52222" offset="0"/>
      <stop stop-color="#A52222" offset="1"/>
    </linearGradient>
    <linearGradient id="paint16_linear_2167_1705" x1="54.63" x2="54.63" y1="160.7" y2="175.1" gradientUnits="userSpaceOnUse">
      <stop stop-color="#A52222" offset="0"/>
      <stop stop-color="#A52222" offset="1"/>
    </linearGradient>
  </defs>
</svg>
